<?xml version="1.0" standalone="no"?>
<!DOCTYPE svg PUBLIC "-//W3C//DTD SVG 20010904//EN"
 "http://www.w3.org/TR/2001/REC-SVG-20010904/DTD/svg10.dtd">
<svg version="1.0" xmlns="http://www.w3.org/2000/svg"
 width="750.000000pt" height="750.000000pt" viewBox="0 0 750.000000 750.000000"
 preserveAspectRatio="xMidYMid meet">
<metadata>
Created by potrace 1.11, written by Peter Selinger 2001-2013
</metadata>
<g transform="translate(0.000000,750.000000) scale(0.100000,-0.100000)"
fill="#000000" stroke="none">
<path d="M3650 6183 c-64 -22 -125 -67 -159 -117 -17 -24 -86 -157 -154 -297
-195 -398 -489 -994 -491 -996 -1 -1 -252 -39 -557 -83 -883 -128 -865 -125
-928 -157 -111 -57 -179 -181 -168 -306 11 -120 15 -125 578 -675 l515 -503
-37 -217 c-21 -119 -74 -431 -119 -692 -90 -522 -94 -574 -51 -658 33 -65 87
-118 149 -149 71 -35 180 -39 251 -10 24 10 317 162 652 338 334 175 613 319
619 319 7 0 295 -148 639 -330 429 -225 644 -333 681 -341 142 -30 282 39 351
173 49 94 44 133 -165 1318 l-44 245 127 125 c69 69 303 299 520 510 450 439
446 434 446 575 0 67 -4 89 -28 137 -34 69 -101 131 -171 156 -31 12 -306 57
-716 116 -366 53 -681 99 -701 102 l-36 6 -308 627 c-170 344 -321 645 -337
668 -73 109 -232 160 -358 116z m444 -1000 c186 -379 342 -692 347 -697 8 -9
319 -56 1172 -178 202 -29 367 -55 367 -58 0 -3 -147 -149 -327 -325 -181
-176 -430 -419 -556 -542 l-227 -222 130 -762 c72 -419 129 -765 128 -768 -2
-4 -312 156 -690 355 l-688 362 -685 -360 c-378 -198 -688 -358 -691 -355 -3
2 54 347 125 766 l131 762 -228 222 c-125 123 -374 366 -555 542 -180 175
-324 322 -320 325 5 4 343 55 753 114 410 59 754 111 765 116 14 5 125 222
359 699 187 380 342 691 345 691 4 0 158 -309 345 -687z"/>
</g>
</svg>
